<svg xmlns="http://www.w3.org/2000/svg" width="512" height="512" viewBox="0 0 512 512">
  <defs>
    <linearGradient id="bg" x1="0%" y1="0%" x2="100%" y2="100%">
      <stop offset="0%" style="stop-color:#1a1a2e"/>
      <stop offset="100%" style="stop-color:#16213e"/>
    </linearGradient>
  </defs>
  <rect width="512" height="512" rx="64" fill="url(#bg)"/>
  <!-- I piece -->
  <rect x="96" y="64" width="64" height="64" rx="8" fill="#00f0f0"/>
  <rect x="176" y="64" width="64" height="64" rx="8" fill="#00f0f0"/>
  <rect x="256" y="64" width="64" height="64" rx="8" fill="#00f0f0"/>
  <rect x="336" y="64" width="64" height="64" rx="8" fill="#00f0f0"/>
  <!-- T piece -->
  <rect x="176" y="176" width="64" height="64" rx="8" fill="#a000f0"/>
  <rect x="256" y="176" width="64" height="64" rx="8" fill="#a000f0"/>
  <rect x="336" y="176" width="64" height="64" rx="8" fill="#a000f0"/>
  <rect x="256" y="256" width="64" height="64" rx="8" fill="#a000f0"/>
  <!-- S piece -->
  <rect x="96" y="336" width="64" height="64" rx="8" fill="#00f000"/>
  <rect x="176" y="336" width="64" height="64" rx="8" fill="#00f000"/>
  <rect x="176" y="416" width="64" height="64" rx="8" fill="#00f000"/>
  <rect x="256" y="416" width="64" height="64" rx="8" fill="#00f000"/>
  <!-- L piece -->
  <rect x="336" y="304" width="64" height="64" rx="8" fill="#f0a000"/>
  <rect x="336" y="384" width="64" height="64" rx="8" fill="#f0a000"/>
  <rect x="256" y="384" width="64" height="64" rx="8" fill="#f0a000"/>
  <rect x="176" y="384" width="64" height="64" rx="8" fill="#f0a000"/>
</svg>
