<svg xmlns="http://www.w3.org/2000/svg" width="192" height="192" viewBox="0 0 192 192">
  <defs>
    <linearGradient id="bg" x1="0%" y1="0%" x2="100%" y2="100%">
      <stop offset="0%" style="stop-color:#1a1a2e"/>
      <stop offset="100%" style="stop-color:#16213e"/>
    </linearGradient>
  </defs>
  <rect width="192" height="192" rx="32" fill="url(#bg)"/>
  <!-- I piece -->
  <rect x="36" y="24" width="24" height="24" rx="4" fill="#00f0f0"/>
  <rect x="64" y="24" width="24" height="24" rx="4" fill="#00f0f0"/>
  <rect x="92" y="24" width="24" height="24" rx="4" fill="#00f0f0"/>
  <rect x="120" y="24" width="24" height="24" rx="4" fill="#00f0f0"/>
  <!-- T piece -->
  <rect x="64" y="64" width="24" height="24" rx="4" fill="#a000f0"/>
  <rect x="92" y="64" width="24" height="24" rx="4" fill="#a000f0"/>
  <rect x="120" y="64" width="24" height="24" rx="4" fill="#a000f0"/>
  <rect x="92" y="92" width="24" height="24" rx="4" fill="#a000f0"/>
  <!-- S piece -->
  <rect x="36" y="120" width="24" height="24" rx="4" fill="#00f000"/>
  <rect x="64" y="120" width="24" height="24" rx="4" fill="#00f000"/>
  <rect x="64" y="148" width="24" height="24" rx="4" fill="#00f000"/>
  <rect x="92" y="148" width="24" height="24" rx="4" fill="#00f000"/>
  <!-- L piece -->
  <rect x="120" y="108" width="24" height="24" rx="4" fill="#f0a000"/>
  <rect x="120" y="136" width="24" height="24" rx="4" fill="#f0a000"/>
  <rect x="92" y="136" width="24" height="24" rx="4" fill="#f0a000"/>
  <rect x="64" y="136" width="24" height="24" rx="4" fill="#f0a000"/>
</svg>
